<svg width="24" height="24" viewBox="0 0 24 24" fill="none" xmlns="http://www.w3.org/2000/svg">
<g clip-path="url(#clip0_42_18)">
<path d="M20.1109 24H3.87866C3.63921 24 3.40957 23.9058 3.24026 23.7382C3.07095 23.5706 2.97583 23.3433 2.97583 23.1063V8.92596C2.97583 8.68893 3.07095 8.46161 3.24026 8.29401C3.40957 8.1264 3.63921 8.03224 3.87866 8.03224C4.1181 8.03224 4.34774 8.1264 4.51705 8.29401C4.68637 8.46161 4.78148 8.68893 4.78148 8.92596V22.2126H19.2081V8.92596C19.2081 8.68893 19.3032 8.46161 19.4725 8.29401C19.6418 8.1264 19.8714 8.03224 20.1109 8.03224C20.3503 8.03224 20.58 8.1264 20.7493 8.29401C20.9186 8.46161 21.0137 8.68893 21.0137 8.92596V23.1063C21.0137 23.3433 20.9186 23.5706 20.7493 23.7382C20.58 23.9058 20.3503 24 20.1109 24Z" fill="black"/>
<path d="M23.0974 12.7779C22.9788 12.7779 22.8614 12.7549 22.7518 12.71C22.6422 12.6651 22.5426 12.5993 22.4588 12.5163L11.9944 2.15754L1.53003 12.5163C1.35976 12.6791 1.1317 12.7692 0.894982 12.7672C0.658264 12.7651 0.431823 12.6711 0.264432 12.5054C0.0970406 12.3397 0.00209115 12.1156 3.41292e-05 11.8813C-0.00202289 11.6469 0.0889769 11.4212 0.253434 11.2526L11.354 0.261669C11.5233 0.0941224 11.7529 0 11.9923 0C12.2317 0 12.4613 0.0941224 12.6306 0.261669L23.736 11.2526C23.8621 11.3776 23.948 11.5369 23.9827 11.7102C24.0175 11.8835 23.9995 12.0631 23.9312 12.2263C23.8629 12.3896 23.7472 12.5291 23.5988 12.6273C23.4503 12.7254 23.2759 12.7778 23.0974 12.7779Z" fill="black"/>
<path d="M14.6132 24H9.37683C9.13738 24 8.90774 23.9058 8.73843 23.7382C8.56912 23.5706 8.474 23.3433 8.474 23.1063V15.3893C8.474 15.1523 8.56912 14.925 8.73843 14.7574C8.90774 14.5898 9.13738 14.4956 9.37683 14.4956H14.6132C14.8527 14.4956 15.0823 14.5898 15.2516 14.7574C15.4209 14.925 15.516 15.1523 15.516 15.3893V23.1063C15.516 23.3433 15.4209 23.5706 15.2516 23.7382C15.0823 23.9058 14.8527 24 14.6132 24ZM10.2797 22.2126H13.7104V16.283H10.2797V22.2126Z" fill="black"/>
</g>
<defs>
<clipPath id="clip0_42_18">
<rect width="24" height="24" fill="white"/>
</clipPath>
</defs>
</svg>
